/* XPM */
static char *result[] = {
/* columns rows colors chars-per-pixel */
"64 64 7 1 ",
"  c #18101C",
". c #273973",
"X c #306C99",
"o c #2CF1EF",
"O c #8F9DB0",
"+ c #BEC7D2",
"@ c #E6EBEC",
/* pixels */
"@@@@@@@@@@@@@@@@@@@@@@@@++XX++@@@@@@@@@@@@@@@@@@@@@@@@@@@@@@@@@@",
"@@@@@@@@@@@@@@@@@@@@@@@@++XX++@@@@@@@@@@@@@@@@@@@@@@@@@@@@@@@@@@",
"++++++++++++++++++++++++++XX++++++++++++++++++++++++++++++++++++",
"++++++++++++++++++++++++++XX++++++++++++++++++++++++++++++++++++",
"OOOOOOOOOOXX..OOOOOOOOOO++XX..OOOOOOOOOOOOOOOOOO++XX..OOOOOOOOOO",
"OOOOOOOOOOXX..OOOOOOOOOO++XX..OOOOOOOOOOOOOOOOOO++XX..OOOOOOOOOO",
"OOOOOOOOOOXX..OOOOOOOOOO++XX..ooOOXXOOOOOOOOOOOO++XX..OOOOOOOOOO",
"OOOOOOOOOOXX..OOOOOOOOOO++XX..ooOOXXOOOOOOOOOOOO++XX..OOOOOOOOOO",
"OOOOOOOOOOXX..OOOOOOOOOO++XX..XXOOOOOOOOOOOOOOOO++XX..OOOOOOOOOO",
"OOOOOOOOOOXX..OOOOOOOOOO++XX..XXOOOOOOOOOOOOOOOO++XX..OOOOOOOOOO",
"OOOOOOOOOOXX..OOOOOOOOOO++XX..OOOOOOOOOOOOOOOOOO++XX..OOOOOOOOOO",
"OOOOOOOOOOXX..OOOOOOOOOO++XX..OOOOOOOOOOOOOOOOOO++XX..OOOOOOOOOO",
"XXXXXXXXXXXX..OOOOOOOOOO++XX..OOOOOOOOOOOOOOOOOO++XXXXXXXXXXXXXX",
"XXXXXXXXXXXX..OOOOOOOOOO++XX..OOOOOOOOOOOOOOOOOO++XXXXXXXXXXXXXX",
"..........XX..OOOOOOOOOO++XX..OOOOOOOOOOOOOOOOOO++..............",
"..........XX..OOOOOOOOOO++XX..OOOOOOOOOOOOOOOOOO++..............",
"OOOOOOOO++XX..OOOOOOOOOO++XX..OOOOOOOOOOOOOOOOOOOOOOOOOOOOOOOOOO",
"OOOOOOOO++XX..OOOOOOOOOO++XX..OOOOOOOOOOOOOOOOOOOOOOOOOOOOOOOOOO",
"OOOOOOOO++XX..OOOOOOOOOO++XX..OOOOOOOOOOOOOOOOOOOOOOOOOOOOOOOOOO",
"OOOOOOOO++XX..OOOOOOOOOO++XX..OOOOOOOOOOOOOOOOOOOOOOOOOOOOOOOOOO",
"OOOOOOOO++XXXXXXXXXXXXXX++XX..OOOOOOOOOOOOOOOOOOOOOOOOOOOOOOOOOO",
"OOOOOOOO++XXXXXXXXXXXXXX++XX..OOOOOOOOOOOOOOOOOOOOOOOOOOOOOOOOOO",
"OOOOOOOO++XX............++XX..OOOOOOOOOOOOOOOOOOOOOOOOOOOOOOOOOO",
"OOOOOOOO++XX............++XX..OOOOOOOOOOOOOOOOOOOOOOOOOOOOOOOOOO",
"++OOOOOO++XX..OOOOOOOOOO++XX..OOOO++@@@@@@@@@@@@@@@@@@@@@@@@@@@@",
"++OOOOOO++XX..OOOOOOOOOO++XX..OOOO++@@@@@@@@@@@@@@@@@@@@@@@@@@@@",
"XXOOOOOO++XX..OOOOOOOOOO++XX..OO++XXXXXXXXXXXXXXXXXXXXXXXXXXXXXX",
"XXOOOOOO++XX..OOOOOOOOOO++XX..OO++XXXXXXXXXXXXXXXXXXXXXXXXXXXXXX",
"XXOOOOOO++XX..OOOOOOOOOO++XX..++XX                              ",
"XXOOOOOO++XX..OOOOOOOOOO++XX..++XX                              ",
"XXOOOOOO++XX..OOOOOOOOOO++XX++XX                                ",
"XXOOOOOO++XX..OOOOOOOOOO++XX++XX                                ",
"XX++@@@@@@@@@@@@@@@@@@++++XXXX      XXXXXXXXXXXXXXXXXXXXXXXXXXXX",
"XX++@@@@@@@@@@@@@@@@@@++++XXXX      XXXXXXXXXXXXXXXXXXXXXXXXXXXX",
"XXXXXXXXXXXXXXXXXXXXXXXXXXXX      XXXX........XX............++XX",
"XXXXXXXXXXXXXXXXXXXXXXXXXXXX      XXXX........XX............++XX",
"                                XX++XX..OOOO++XX..OOOOOOOOOO++XX",
"                                XX++XX..OOOO++XX..OOOOOOOOOO++XX",
"                              XX..++XX..OOOO++XX..OOOOOOOOOO++XX",
"                              XX..++XX..OOOO++XX..OOOOOOOOOO++XX",
"XXXXXXXXXXXXXXXXXXXXXXXXXXXXXX..OO++XX..OOOO++XX..OOOOOOOOOO++XX",
"XXXXXXXXXXXXXXXXXXXXXXXXXXXXXX..OO++XX..OOOO++XX..OOOOOOOOOO++XX",
"............XX................OOOO++XX..OOOO++XX..OOOOOOOOOO++..",
"............XX................OOOO++XX..OOOO++XX..OOOOOOOOOO++..",
"OOOOOOOOOO++XX..OOOOOOOOOOOOOOOOOO++XXXXXXXXXXXXXXXXOOOOOOOOOOOO",
"OOOOOOOOOO++XX..OOOOOOOOOOOOOOOOOO++XXXXXXXXXXXXXXXXOOOOOOOOOOOO",
"OOOOOOOOOO++XX..OOOOOOOOOOOOOOOOOO++XX..............XXOOOOOOOOOO",
"OOOOOOOOOO++XX..OOOOOOOOOOOOOOOOOO++XX..............XXOOOOOOOOOO",
"OOOOOOOOOO++XX..OOOOOOOOOOOOOOOOOO++XX..OOOOOOOOOOOO..XXOOOOOOOO",
"OOOOOOOOOO++XX..OOOOOOOOOOOOOOOOOO++XX..OOOOOOOOOOOO..XXOOOOOOOO",
"OOOOOOOOOO++XX..OOOOOOOOOOOOOOOOOO++XX..OOOOOOOOOOOOOO..XXOOOOOO",
"OOOOOOOOOO++XX..OOOOOOOOOOOOOOOOOO++XX..OOOOOOOOOOOOOO..XXOOOOOO",
"XXXXXXXXXXXXXXXXXXXXXXXXXXXXXXXXXX++XX..OOOOOOOOOOOOOOOO..XXXXXX",
"XXXXXXXXXXXXXXXXXXXXXXXXXXXXXXXXXX++XX..OOOOOOOOOOOOOOOO..XXXXXX",
"....XX............................++XX..OOOOOOOOOOOOOOOOOO......",
"....XX............................++XX..OOOOOOOOOOOOOOOOOO......",
"OO++XX..OOOOOOOOOOOOooOOooOOooOOOO++XX..OOOOOOOOOOOOOOOOOOOOOOOO",
"OO++XX..OOOOOOOOOOOOooOOooOOooOOOO++XX..OOOOOOOOOOOOOOOOOOOOOOOO",
"OO++XX..OOOOOOOOOOOOOOOOOOOOOOOOOO++XX..OOOOOOOOOOOOOOOOOOOOOOOO",
"OO++XX..OOOOOOOOOOOOOOOOOOOOOOOOOO++XX..OOOOOOOOOOOOOOOOOOOOOOOO",
"OO++XX..OOOOOOOOOOOOOOOOOOOOOOOOOO++XX..OOOOOOOOOOOOOOOOOOOOOOOO",
"OO++XX..OOOOOOOOOOOOOOOOOOOOOOOOOO++XX..OOOOOOOOOOOOOOOOOOOOOOOO",
"XXXXXXXXXXXXXXXXXXXXXXXXXXXXXXXXXXXXXXXXXXXXXXXXXXXXXXXXXXXXXXXX",
"XXXXXXXXXXXXXXXXXXXXXXXXXXXXXXXXXXXXXXXXXXXXXXXXXXXXXXXXXXXXXXXX"
};
