/* XPM */
static char *result[] = {
/* columns rows colors chars-per-pixel */
"64 64 6 1 ",
"  c #241816",
". c #222537",
"X c #465870",
"o c #66849A",
"O c #9ACED1",
"+ c #E5F4F3",
/* pixels */
"..++OOOOOOoooooo..++OOOOOOoooooo..++OOOOOOoooooo..++OOOOOOoooooo",
"..++OOOOOOoooooo..++OOOOOOoooooo..++OOOOOOoooooo..++OOOOOOoooooo",
"..OOXXXXXXXXXXXX..OOXXXXXXXXXXXX..OOXXXXXXXXXXXX..OOXXXXXXXXXXXX",
"..OOXXXXXXXXXXXX..OOXXXXXXXXXXXX..OOXXXXXXXXXXXX..OOXXXXXXXXXXXX",
"..OOXXXXXXXXXXXX..OOXXXXXXXXXXXX..OOXXXXXXXXXXXX..OOXXXXXXXXXXXX",
"..OOXXXXXXXXXXXX..OOXXXXXXXXXXXX..OOXXXXXXXXXXXX..OOXXXXXXXXXXXX",
"  OOXXXXXXXXXXXX  OOXXXXXXXXXXXX  OOXXXXXXXXXXXX  OOXXXXXXXXXXXX",
"  OOXXXXXXXXXXXX  OOXXXXXXXXXXXX  OOXXXXXXXXXXXX  OOXXXXXXXXXXXX",
"..ooXXXXXXXXXXXX..ooXXXXXXXXXXXX..ooXXXXXXXXXXXX..ooXXXXXXXXXXXX",
"..ooXXXXXXXXXXXX..ooXXXXXXXXXXXX..ooXXXXXXXXXXXX..ooXXXXXXXXXXXX",
"..ooXXXXXXXXXXXX..ooXXXXXXXXXXXX..ooXXXXXXXXXXXX..ooXXXXXXXXXXXX",
"..ooXXXXXXXXXXXX..ooXXXXXXXXXXXX..ooXXXXXXXXXXXX..ooXXXXXXXXXXXX",
"..ooXXXXXXXXXXXX..ooXXXXXXXXXXXX..ooXXXXXXXXXXXX..ooXXXXXXXXXXXX",
"..ooXXXXXXXXXXXX..ooXXXXXXXXXXXX..ooXXXXXXXXXXXX..ooXXXXXXXXXXXX",
"  ......  ......  ......  ......  ......  ......  ......  ......",
"  ......  ......  ......  ......  ......  ......  ......  ......",
"..++OOOOOOoooooo..++OOOOOOoooooo..++OOOOOOoooooo..++OOOOOOoooooo",
"..++OOOOOOoooooo..++OOOOOOoooooo..++OOOOOOoooooo..++OOOOOOoooooo",
"..OOXXXXXXXXXXXX..OOXXXXXXXXXXXX..OOXXXXXXXXXXXX..OOXXXXXXXXXXXX",
"..OOXXXXXXXXXXXX..OOXXXXXXXXXXXX..OOXXXXXXXXXXXX..OOXXXXXXXXXXXX",
"..OOXXXXXXXXXXXX..OOXXXXXXXXXXXX..OOXXXXXXXXXXXX..OOXXXXXXXXXXXX",
"..OOXXXXXXXXXXXX..OOXXXXXXXXXXXX..OOXXXXXXXXXXXX..OOXXXXXXXXXXXX",
"  OOXXXXXXXXXXXX  OOXXXXXXXXXXXX  OOXXXXXXXXXXXX  OOXXXXXXXXXXXX",
"  OOXXXXXXXXXXXX  OOXXXXXXXXXXXX  OOXXXXXXXXXXXX  OOXXXXXXXXXXXX",
"..ooXXXXXXXXXXXX..ooXXXXXXXXXXXX..ooXXXXXXXXXXXX..ooXXXXXXXXXXXX",
"..ooXXXXXXXXXXXX..ooXXXXXXXXXXXX..ooXXXXXXXXXXXX..ooXXXXXXXXXXXX",
"..ooXXXXXXXXXXXX..ooXXXXXXXXXXXX..ooXXXXXXXXXXXX..ooXXXXXXXXXXXX",
"..ooXXXXXXXXXXXX..ooXXXXXXXXXXXX..ooXXXXXXXXXXXX..ooXXXXXXXXXXXX",
"..ooXXXXXXXXXXXX..ooXXXXXXXXXXXX..ooXXXXXXXXXXXX..ooXXXXXXXXXXXX",
"..ooXXXXXXXXXXXX..ooXXXXXXXXXXXX..ooXXXXXXXXXXXX..ooXXXXXXXXXXXX",
"  ......  ......  ......  ......  ......  ......  ......  ......",
"  ......  ......  ......  ......  ......  ......  ......  ......",
"..++OOOOOOoooooo..++OOOOOOoooooo..++OOOOOOoooooo..++OOOOOOoooooo",
"..++OOOOOOoooooo..++OOOOOOoooooo..++OOOOOOoooooo..++OOOOOOoooooo",
"..OOXXXXXXXXXXXX..OOXXXXXXXXXXXX..OOXXXXXXXXXXXX..OOXXXXXXXXXXXX",
"..OOXXXXXXXXXXXX..OOXXXXXXXXXXXX..OOXXXXXXXXXXXX..OOXXXXXXXXXXXX",
"..OOXXXXXXXXXXXX..OOXXXXXXXXXXXX..OOXXXXXXXXXXXX..OOXXXXXXXXXXXX",
"..OOXXXXXXXXXXXX..OOXXXXXXXXXXXX..OOXXXXXXXXXXXX..OOXXXXXXXXXXXX",
"  OOXXXXXXXXXXXX  OOXXXXXXXXXXXX  OOXXXXXXXXXXXX  OOXXXXXXXXXXXX",
"  OOXXXXXXXXXXXX  OOXXXXXXXXXXXX  OOXXXXXXXXXXXX  OOXXXXXXXXXXXX",
"..ooXXXXXXXXXXXX..ooXXXXXXXXXXXX..ooXXXXXXXXXXXX..ooXXXXXXXXXXXX",
"..ooXXXXXXXXXXXX..ooXXXXXXXXXXXX..ooXXXXXXXXXXXX..ooXXXXXXXXXXXX",
"..ooXXXXXXXXXXXX..ooXXXXXXXXXXXX..ooXXXXXXXXXXXX..ooXXXXXXXXXXXX",
"..ooXXXXXXXXXXXX..ooXXXXXXXXXXXX..ooXXXXXXXXXXXX..ooXXXXXXXXXXXX",
"..ooXXXXXXXXXXXX..ooXXXXXXXXXXXX..ooXXXXXXXXXXXX..ooXXXXXXXXXXXX",
"..ooXXXXXXXXXXXX..ooXXXXXXXXXXXX..ooXXXXXXXXXXXX..ooXXXXXXXXXXXX",
"  ......  ......  ......  ......  ......  ......  ......  ......",
"  ......  ......  ......  ......  ......  ......  ......  ......",
"..++OOOOOOoooooo..++OOOOOOoooooo..++OOOOOOoooooo..++OOOOOOoooooo",
"..++OOOOOOoooooo..++OOOOOOoooooo..++OOOOOOoooooo..++OOOOOOoooooo",
"..OOXXXXXXXXXXXX..OOXXXXXXXXXXXX..OOXXXXXXXXXXXX..OOXXXXXXXXXXXX",
"..OOXXXXXXXXXXXX..OOXXXXXXXXXXXX..OOXXXXXXXXXXXX..OOXXXXXXXXXXXX",
"..OOXXXXXXXXXXXX..OOXXXXXXXXXXXX..OOXXXXXXXXXXXX..OOXXXXXXXXXXXX",
"..OOXXXXXXXXXXXX..OOXXXXXXXXXXXX..OOXXXXXXXXXXXX..OOXXXXXXXXXXXX",
"  OOXXXXXXXXXXXX  OOXXXXXXXXXXXX  OOXXXXXXXXXXXX  OOXXXXXXXXXXXX",
"  OOXXXXXXXXXXXX  OOXXXXXXXXXXXX  OOXXXXXXXXXXXX  OOXXXXXXXXXXXX",
"..ooXXXXXXXXXXXX..ooXXXXXXXXXXXX..ooXXXXXXXXXXXX..ooXXXXXXXXXXXX",
"..ooXXXXXXXXXXXX..ooXXXXXXXXXXXX..ooXXXXXXXXXXXX..ooXXXXXXXXXXXX",
"..ooXXXXXXXXXXXX..ooXXXXXXXXXXXX..ooXXXXXXXXXXXX..ooXXXXXXXXXXXX",
"..ooXXXXXXXXXXXX..ooXXXXXXXXXXXX..ooXXXXXXXXXXXX..ooXXXXXXXXXXXX",
"..ooXXXXXXXXXXXX..ooXXXXXXXXXXXX..ooXXXXXXXXXXXX..ooXXXXXXXXXXXX",
"..ooXXXXXXXXXXXX..ooXXXXXXXXXXXX..ooXXXXXXXXXXXX..ooXXXXXXXXXXXX",
"  ......  ......  ......  ......  ......  ......  ......  ......",
"  ......  ......  ......  ......  ......  ......  ......  ......"
};
