/* XPM */
static char *result[] = {
/* columns rows colors chars-per-pixel */
"64 64 6 1 ",
"  c #2B1818",
". c #42271E",
"X c #2E4E27",
"o c #336C57",
"O c #548249",
"+ c #91AC62",
/* pixels */
"XXXXXXXX..oooooo  oooooo  oooooo          XXXXXXXX++OOOO  XXXXXX",
"XXXXXXXX..oooooo  oooooo  oooooo          XXXXXXXX++OOOO  XXXXXX",
"XX++++oo..++++++  XXXXXX  oooooo  oooooo  ooooooXXOOOOOO  oooooo",
"XX++++oo..++++++  XXXXXX  oooooo  oooooo  ooooooXXOOOOOO  oooooo",
"XXOOOOOO..OOOOOO  oooooo  XXXXXX  ++++++  ++++++XXOOOOOO  oo++++",
"XXOOOOOO..OOOOOO  oooooo  XXXXXX  ++++++  ++++++XXOOOOOO  oo++++",
"XXOOOOOO..OOOOOO  ++++++  ++++++  OOOOOO  OOOOOOXXOOOOOO..++OOOO",
"XXOOOOOO..OOOOOO  ++++++  ++++++  OOOOOO  OOOOOOXXOOOOOO..++OOOO",
"XXOOOOOO..OOOOOO..OOOOOO  OOOOOO  OOOOOO  OOOOooXXOOoooo..OOOOOO",
"XXOOOOOO..OOOOOO..OOOOOO  OOOOOO  OOOOOO  OOOOooXXOOoooo..OOOOOO",
"..OOOOOO..oooooo..OOOOOO  OOOOOO  OOOOOO  OOOOooXXoooooo..OOOOOO",
"..OOOOOO..oooooo..OOOOOO  OOOOOO  OOOOOO  OOOOooXXoooooo..OOOOOO",
"..OOOOOO..oooooo..ooOOOO  OOOOOO..oooooo..OOOOooXXoooooo..oooooo",
"..OOOOOO..oooooo..ooOOOO  OOOOOO..oooooo..OOOOooXXoooooo..oooooo",
"..OOOOOO..oooooo..ooOOOO..oooooo..oooooo..ooooooXXoooooo..oooooo",
"..OOOOOO..oooooo..ooOOOO..oooooo..oooooo..ooooooXXoooooo..oooooo",
"  OOOOOO..oooooo..oooooo..oooooo  oooooo..oooooo..oooooo..oooooo",
"  OOOOOO..oooooo..oooooo..oooooo  oooooo..oooooo..oooooo..oooooo",
"  OOOOOO..oooooo..oooooo..oooooo  oooooo..oooooo..oooooo..oooooo",
"  OOOOOO..oooooo..oooooo..oooooo  oooooo..oooooo..oooooo..oooooo",
"  OOOOOO..XXXXXX..oooooo..XXXXXX  oooooo  oooooo..........XXXXXX",
"  OOOOOO..XXXXXX..oooooo..XXXXXX  oooooo  oooooo..........XXXXXX",
"  XXXXXX..++++++..XXXXXX..OOOOOO  ......  XXXXXX..++++++..OO++++",
"  XXXXXX..++++++..XXXXXX..OOOOOO  ......  XXXXXX..++++++..OO++++",
"  ++++++..OOOOOO..oo++++..oooooo  ++++++  oo++++..OOOOOO..++OOOO",
"  ++++++..OOOOOO..oo++++..oooooo  ++++++  oo++++..OOOOOO..++OOOO",
"  OOOOOO..OOOOOO..++OOOO..oooooo..OOOOOO  ++OOOO..OOOOOO..OOOOOO",
"  OOOOOO..OOOOOO..++OOOO..oooooo..OOOOOO  ++OOOO..OOOOOO..OOOOOO",
"  OOOOOO..OOOOOO..OOOOOO..oooooo..OOOOOO  OOOOOO..OOOOOO..OOOOOO",
"  OOOOOO..OOOOOO..OOOOOO..oooooo..OOOOOO  OOOOOO..OOOOOO..OOOOOO",
"  OOOOOO..OOOOoo..OOOOOO..oooooo..OOOOOO..OOOOOO  OOoooo..OOOOOO",
"  OOOOOO..OOOOoo..OOOOOO..oooooo..OOOOOO..OOOOOO  OOoooo..OOOOOO",
"  OOOOOO..OOOOoo..OOOOOO..oooooo..OOOOoo..OOOOoo  OOoooo  OOoooo",
"  OOOOOO..OOOOoo..OOOOOO..oooooo..OOOOoo..OOOOoo  OOoooo  OOoooo",
"..OOOOoo..oooooo  OOOOoo..oooooo..oooooo..OOOOoo  oooooo  oooooo",
"..OOOOoo..oooooo  OOOOoo..oooooo..oooooo..OOOOoo  oooooo  oooooo",
"..OOOOoo..oooooo  oooooo..oooooo..oooooo..oooooo  oooooo  oooooo",
"..OOOOoo..oooooo  oooooo..oooooo..oooooo..oooooo  oooooo  oooooo",
"..oooooo..oooooo  ooooooXXooooooXXoooooo..oooooo  oooooo  oooooo",
"..oooooo..oooooo  ooooooXXooooooXXoooooo..oooooo  oooooo  oooooo",
"..oooooo..oooooo  ooooooXXooooooXXoooooo  oooooo  oooooo  oooooo",
"..oooooo..oooooo  ooooooXXooooooXXoooooo  oooooo  oooooo  oooooo",
"..XXXXXX........  ooooooXXooooooXXXXXXXX  oooooo  ......  oooooo",
"..XXXXXX........  ooooooXXooooooXXXXXXXX  oooooo  ......  oooooo",
"..++++oo..++++++  XXXXXXXXXXXXXXXX++++++  ......  oo++++  XXXXXX",
"..++++oo..++++++  XXXXXXXXXXXXXXXX++++++  ......  oo++++  XXXXXX",
"..OOOOOO..OOOOOO  OOOOooXXoo++++XXOOOOOO  oo++++  ++OOOO  oooooo",
"..OOOOOO..OOOOOO  OOOOooXXoo++++XXOOOOOO  oo++++  ++OOOO  oooooo",
"..OOOOOO..OOOOOO  OOOOOOXX++OOOOXXOOOOOO  ++OOOO..OOOOOO  oo++++",
"..OOOOOO..OOOOOO  OOOOOOXX++OOOOXXOOOOOO  ++OOOO..OOOOOO  oo++++",
"..OOOOOO..OOOOoo  OOOOOOXXOOOOOOXXOOOOOO  OOOOOO..OOOOOO  ++OOOO",
"..OOOOOO..OOOOoo  OOOOOOXXOOOOOOXXOOOOOO  OOOOOO..OOOOOO  ++OOOO",
"..OOOOOO..OOOOoo  OOOOOOXXOOOOoo..OOOOoo  OOOOOOXXOOOOoo  OOOOOO",
"..OOOOOO..OOOOoo  OOOOOOXXOOOOoo..OOOOoo  OOOOOOXXOOOOoo  OOOOOO",
"..oooooo..oooooo  OOOOOOXXOOOOoo..OOOOoo  OOooooXXoooooo  OOOOOO",
"..oooooo..oooooo  OOOOOOXXOOOOoo..OOOOoo  OOooooXXoooooo  OOOOOO",
"..oooooo..oooooo  OOoooo..OOoooo..oooooo  ooooooXXoooooo  oooooo",
"..oooooo..oooooo  OOoooo..OOoooo..oooooo  ooooooXXoooooo  oooooo",
"..oooooo..oooooo  oooooo..oooooo  oooooo  ooooooXXoooooo  oooooo",
"..oooooo..oooooo  oooooo..oooooo  oooooo  ooooooXXoooooo  oooooo",
"XXoooooo..oooooo  oooooo  oooooo  oooooo  ooooooXXXXXXXX  oooooo",
"XXoooooo..oooooo  oooooo  oooooo  oooooo  ooooooXXXXXXXX  oooooo",
"XXoooooo........  oooooo  oooooo  oooooo  ooooooXXoo++++  oooooo",
"XXoooooo........  oooooo  oooooo  oooooo  ooooooXXoo++++  oooooo"
};
