/* XPM */
static char *result[] = {
/* columns rows colors chars-per-pixel */
"64 64 5 1 ",
"  c #121615",
". c #1D2524",
"X c #313C3B",
"o c #68817F",
"O c #97B6B4",
/* pixels */
"                                                                ",
"                                                                ",
"ooooOOOOOOOOOOOOOOOOOOOOooooXX  ..............................  ",
"ooooOOOOOOOOOOOOOOOOOOOOooooXX  ..............................  ",
"ooXXXXXXXXXXXXXXXXXXXXXXXXXXXX                                  ",
"ooXXXXXXXXXXXXXXXXXXXXXXXXXXXX                                  ",
"ooXXXXXXXXXXXXXXXXXXXXXXXXXXXX  ..............................  ",
"ooXXXXXXXXXXXXXXXXXXXXXXXXXXXX  ..............................  ",
"ooXXXXXXXXXXXXXXXXXXXXXXXXXXXX                                  ",
"ooXXXXXXXXXXXXXXXXXXXXXXXXXXXX                                  ",
"ooXXXXXXXXXXXXXXXXXXXXXXXXXXXX  ..............................  ",
"ooXXXXXXXXXXXXXXXXXXXXXXXXXXXX  ..............................  ",
"ooXXXXXXXXXXXXXXXXXXXXXXXXXXXX                                  ",
"ooXXXXXXXXXXXXXXXXXXXXXXXXXXXX                                  ",
"ooXXXXXXXXXXXXXXXXXXXXXXXXXXXX  ..............................  ",
"ooXXXXXXXXXXXXXXXXXXXXXXXXXXXX  ..............................  ",
"ooXXXXXXXXXXXXXXXXXXXXXXXXXXXX                                  ",
"ooXXXXXXXXXXXXXXXXXXXXXXXXXXXX                                  ",
"ooXXXXXXXXXXXXXXXXXXXXXXXXXXXX  ..............................  ",
"ooXXXXXXXXXXXXXXXXXXXXXXXXXXXX  ..............................  ",
"ooXXXXXXXXXXXXXXXXXXXXXXXXXXXX                                  ",
"ooXXXXXXXXXXXXXXXXXXXXXXXXXXXX                                  ",
"ooXXXXXXXXXXXXXXXXXXXXXXXXXXXX  ..............................  ",
"ooXXXXXXXXXXXXXXXXXXXXXXXXXXXX  ..............................  ",
"ooXXXXXXXXXXXXXXXXXXXXXXXXXXXX                                  ",
"ooXXXXXXXXXXXXXXXXXXXXXXXXXXXX                                  ",
"ooXXXXXXXXXXXXXXXXXXXXXXXXXXXX  ..............................  ",
"ooXXXXXXXXXXXXXXXXXXXXXXXXXXXX  ..............................  ",
"ooXXXXXXXXXXXXXXXXXXXXXXXXXXXX                                  ",
"ooXXXXXXXXXXXXXXXXXXXXXXXXXXXX                                  ",
"ooXXXXXXXXXXXXXXXXXXXXXXXXXXXX  ooooOOOOOOOOOOOOOOOOOOOOooooXX  ",
"ooXXXXXXXXXXXXXXXXXXXXXXXXXXXX  ooooOOOOOOOOOOOOOOOOOOOOooooXX  ",
"ooXXoo  XXXXXXXXXXXXXXXXoo  XX  ooXXXXXXXXXXXXXXXXXXXXXXXXXXXX  ",
"ooXXoo  XXXXXXXXXXXXXXXXoo  XX  ooXXXXXXXXXXXXXXXXXXXXXXXXXXXX  ",
"XXXX    XXXXXXXXXXXXXXXX    XX  ooXXXXXXXXXXXXXXXXXXXXXXXXXXXX  ",
"XXXX    XXXXXXXXXXXXXXXX    XX  ooXXXXXXXXXXXXXXXXXXXXXXXXXXXX  ",
"                                ooXXXXXXXXXXXXXXXXXXXXXXXXXXXX  ",
"                                ooXXXXXXXXXXXXXXXXXXXXXXXXXXXX  ",
"..............................  ooXXXXXXXXXXXXXXXXXXXXXXXXXXXX  ",
"..............................  ooXXXXXXXXXXXXXXXXXXXXXXXXXXXX  ",
"                                ooXXXXXXXXXXXXXXXXXXXXXXXXXXXX  ",
"                                ooXXXXXXXXXXXXXXXXXXXXXXXXXXXX  ",
"..............................  ooXXXXXXXXXXXXXXXXXXXXXXXXXXXX  ",
"..............................  ooXXXXXXXXXXXXXXXXXXXXXXXXXXXX  ",
"                                ooXXXXXXXXXXXXXXXXXXXXXXXXXXXX  ",
"                                ooXXXXXXXXXXXXXXXXXXXXXXXXXXXX  ",
"..............................  ooXXXXXXXXXXXXXXXXXXXXXXXXXXXX  ",
"..............................  ooXXXXXXXXXXXXXXXXXXXXXXXXXXXX  ",
"                                ooXXXXXXXXXXXXXXXXXXXXXXXXXXXX  ",
"                                ooXXXXXXXXXXXXXXXXXXXXXXXXXXXX  ",
"..............................  ooXXXXXXXXXXXXXXXXXXXXXXXXXXXX  ",
"..............................  ooXXXXXXXXXXXXXXXXXXXXXXXXXXXX  ",
"                                ooXXXXXXXXXXXXXXXXXXXXXXXXXXXX  ",
"                                ooXXXXXXXXXXXXXXXXXXXXXXXXXXXX  ",
"..............................  ooXXXXXXXXXXXXXXXXXXXXXXXXXXXX  ",
"..............................  ooXXXXXXXXXXXXXXXXXXXXXXXXXXXX  ",
"                                ooXXXXXXXXXXXXXXXXXXXXXXXXXXXX  ",
"                                ooXXXXXXXXXXXXXXXXXXXXXXXXXXXX  ",
"..............................  ooXXXXXXXXXXXXXXXXXXXXXXXXXXXX  ",
"..............................  ooXXXXXXXXXXXXXXXXXXXXXXXXXXXX  ",
"                                ooXXoo  XXXXXXXXXXXXXXXXoo  XX  ",
"                                ooXXoo  XXXXXXXXXXXXXXXXoo  XX  ",
"..............................  XXXX    XXXXXXXXXXXXXXXX    XX  ",
"..............................  XXXX    XXXXXXXXXXXXXXXX    XX  "
};
