/* XPM */
static char *result[] = {
/* columns rows colors chars-per-pixel */
"64 64 8 1 ",
"  c #18101C",
". c #142F4E",
"X c #273973",
"o c #306C99",
"O c #2CF1EF",
"+ c #8F9DB0",
"@ c #BEC7D2",
"# c #E6EBEC",
/* pixels */
"########################@@oo@@##################################",
"########################@@oo@@##################################",
"@@@@@@@@@@@@@@@@@@@@@@@@@@oo@@@@@@@@@@@@@@@@@@@@@@@@@@@@@@@@@@@@",
"@@@@@@@@@@@@@@@@@@@@@@@@@@oo@@@@@@@@@@@@@@@@@@@@@@@@@@@@@@@@@@@@",
"++++++++++ooXX++++++++++@@ooXX++++++++++++++++++@@ooXX++++++++++",
"++++++++++ooXX++++++++++@@ooXX++++++++++++++++++@@ooXX++++++++++",
"++++++++++ooXX++++++++++@@ooXXOO++oo++++++++++++@@ooXX++++++++++",
"++++++++++ooXX++++++++++@@ooXXOO++oo++++++++++++@@ooXX++++++++++",
"++++++++++ooXX++++++++++@@ooXXoo++++++++++++++++@@ooXX++++++++++",
"++++++++++ooXX++++++++++@@ooXXoo++++++++++++++++@@ooXX++++++++++",
"++++++++++ooXX++++++++++@@ooXX++++++++++++++++++@@ooXX++++++++++",
"++++++++++ooXX++++++++++@@ooXX++++++++++++++++++@@ooXX++++++++++",
"ooooooooooooXX++++++++++@@ooXX++++++++++++++++++@@oooooooooooooo",
"ooooooooooooXX++++++++++@@ooXX++++++++++++++++++@@oooooooooooooo",
"XXXXXXXXXXooXX++++++++++@@ooXX++++++++++++++++++@@XXXXXXXXXXXXXX",
"XXXXXXXXXXooXX++++++++++@@ooXX++++++++++++++++++@@XXXXXXXXXXXXXX",
"++++++++@@ooXX++++++++++@@ooXX++++++++++++++++++++++++++++++++++",
"++++++++@@ooXX++++++++++@@ooXX++++++++++++++++++++++++++++++++++",
"++++++++@@ooXX++++++++++@@ooXX++++++oooooooooooooooooooooooooo++",
"++++++++@@ooXX++++++++++@@ooXX++++++oooooooooooooooooooooooooo++",
"++++++++@@oooooooooooooo@@ooXX++++++oo..OOOOooOOOO..OOooOO..++++",
"++++++++@@oooooooooooooo@@ooXX++++++oo..OOOOooOOOO..OOooOO..++++",
"++++++++@@ooXXXXXXXXXXXX@@ooXX++++++oo..OOOO..OOOO..oo..oo..++++",
"++++++++@@ooXXXXXXXXXXXX@@ooXX++++++oo..OOOO..OOOO..oo..oo..++++",
"@@++++++@@ooXX++++++++++@@ooXX++++@@############################",
"@@++++++@@ooXX++++++++++@@ooXX++++@@############################",
"oo++++++@@ooXX++++++++++@@ooXX++@@oooooooooooooooooooooooooooooo",
"oo++++++@@ooXX++++++++++@@ooXX++@@oooooooooooooooooooooooooooooo",
"oo++++++@@ooXX++++++++++@@ooXX@@oo                              ",
"oo++++++@@ooXX++++++++++@@ooXX@@oo                              ",
"oo++++++@@ooXX++++++++++@@oo@@oo                                ",
"oo++++++@@ooXX++++++++++@@oo@@oo                                ",
"oo@@##################@@@@oooo      oooooooooooooooooooooooooooo",
"oo@@##################@@@@oooo      oooooooooooooooooooooooooooo",
"oooooooooooooooooooooooooooo      ooooXXXXXXXXooXXXXXXXXXXXX@@oo",
"oooooooooooooooooooooooooooo      ooooXXXXXXXXooXXXXXXXXXXXX@@oo",
"                                oo@@ooXX++++@@ooXX++++++++++@@oo",
"                                oo@@ooXX++++@@ooXX++++++++++@@oo",
"                              ooXX@@ooXX++++@@ooXX++++++++++@@oo",
"                              ooXX@@ooXX++++@@ooXX++++++++++@@oo",
"ooooooooooooooooooooooooooooooXX++@@ooXX++++@@ooXX++++++++++@@oo",
"ooooooooooooooooooooooooooooooXX++@@ooXX++++@@ooXX++++++++++@@oo",
"XXXXXXXXXXXXooXXXXXXXXXXXXXXXX++++@@ooXX++++@@ooXX++++++++++@@XX",
"XXXXXXXXXXXXooXXXXXXXXXXXXXXXX++++@@ooXX++++@@ooXX++++++++++@@XX",
"++++++++++@@ooXX++++++++++++++++++@@oooooooooooooooo++++++++++++",
"++++++++++@@ooXX++++++++++++++++++@@oooooooooooooooo++++++++++++",
"++++++++++@@ooXX++++++++++++++++++@@oo              oo++++++++++",
"++++++++++@@ooXX++++++++++++++++++@@oo              oo++++++++++",
"++++++++++@@ooXX++++++++++++++++++@@oo  ......  ..  oooo++++++++",
"++++++++++@@ooXX++++++++++++++++++@@oo  ......  ..  oooo++++++++",
"++++++++++@@ooXX++++++++++++++++++@@oo              ooXXoo++++++",
"++++++++++@@ooXX++++++++++++++++++@@oo              ooXXoo++++++",
"oooooooooooooooooooooooooooooooooo@@oo  OOOO  OO    oo++XXoooooo",
"oooooooooooooooooooooooooooooooooo@@oo  OOOO  OO    oo++XXoooooo",
"XXXXooXXXXXXXXXXXXXXXXXXXXXXXXXXXX@@oo              oo++++XXXXXX",
"XXXXooXXXXXXXXXXXXXXXXXXXXXXXXXXXX@@oo              oo++++XXXXXX",
"++@@ooXX++++++++++++OO++OO++OO++++@@oo  OOOO  OOOO  oo++++++++++",
"++@@ooXX++++++++++++OO++OO++OO++++@@oo  OOOO  OOOO  oo++++++++++",
"++@@ooXX++++++++++++++++++++++++++@@oo              oo++++++++++",
"++@@ooXX++++++++++++++++++++++++++@@oo              oo++++++++++",
"++@@ooXX++++++++++++++++++++++++++@@oo              oo++++++++++",
"++@@ooXX++++++++++++++++++++++++++@@oo              oo++++++++++",
"oooooooooooooooooooooooooooooooooooooooooooooooooooooooooooooooo",
"oooooooooooooooooooooooooooooooooooooooooooooooooooooooooooooooo"
};
