/* XPM */
static char *result[] = {
/* columns rows colors chars-per-pixel */
"64 64 15 1 ",
"  c #17331C",
". c #1C3418",
"X c #172520",
"o c #262A30",
"O c #613726",
"+ c #2B4D26",
"@ c #436D3B",
"# c #505761",
"$ c #A34D2A",
"% c #DF733D",
"& c #658645",
"* c #83A860",
"= c #BFC775",
"- c #8AA1AC",
"; c #E3EBAB",
/* pixels */
"@@&&==;;;;;;;;;;;;;;;;;;==&&@@++@@&&==;;;;;;;;;;;;;;;;;;==&&@@++",
"@@&&==;;;;;;;;;;;;;;;;;;==&&@@++@@&&==;;;;;;;;;;;;;;;;;;==&&@@++",
"**==;;;;;;;;;;==;;==;;======**++**==;;;;;;;;;;;;;;;;==;;;;==**++",
"**==;;;;;;;;;;==;;==;;======**++**==;;;;;;;;;;;;;;;;==;;;;==**++",
"&&**======================**&&++&&**======================**&&++",
"&&**======================**&&++&&**======================**&&++",
"@@&&**********&&**&&**&&**&&@@++@@&&**********&&**&&**&&**&&@@++",
"@@&&**********&&**&&**&&**&&@@++@@&&**********&&**&&**&&**&&@@++",
"++++......................++++++++++......................++++++",
"++++......................++++++++++......................++++++",
"++**========================++++++**OO%%$$%%$$%%$$%%$$%%OO==++++",
"++**========================++++++**OO%%$$%%$$%%$$%%$$%%OO==++++",
"&&==========================@@++&&==$$$$%%$$%%$$%%$$%%$$$$==@@++",
"&&==========================@@++&&==$$$$%%$$%%$$%%$$%%$$$$==@@++",
"&&**==**&&==**&&==**==**==**@@++&&**OOOOOOOOOOOOOOOOOOOOOO**@@++",
"&&**==**&&==**&&==**==**==**@@++&&**OOOOOOOOOOOOOOOOOOOOOO**@@++",
"&&******&&**&&@@&&**&&&&**&&@@++&&**$$%%$$%%$$%%$$%%$$%%$$&&@@++",
"&&******&&**&&@@&&**&&&&**&&@@++&&**$$%%$$%%$$%%$$%%$$%%$$&&@@++",
"&&******&&**&&@@&&**&&@@&&&&@@++&&**OO$$%%$$%%$$%%$$%%$$OO&&@@++",
"&&******&&**&&@@&&**&&@@&&&&@@++&&**OO$$%%$$%%$$%%$$%%$$OO&&@@++",
"@@&&****@@&&@@@@&&**@@@@@@    ..@@&&@@OOOOOOOOOOOOOOOOOO&&@@@@..",
"@@&&****@@&&@@@@&&**@@@@@@    ..@@&&@@OOOOOOOOOOOOOOOOOO&&@@@@..",
"................................................................",
"................................................................",
"......++++++++++++++++++++............++++++++++++++++++++......",
"......++++++++++++++++++++............++++++++++++++++++++......",
"@@&&==;;;;;;;;;;;;;;;;;;;;&&@@..@@&&==;;;;;;;;;;;;;;;;;;==&&@@..",
"@@&&==;;;;;;;;;;;;;;;;;;;;&&@@..@@&&==;;;;;;;;;;;;;;;;;;==&&@@..",
"**==;;;;;;;;;;;;;;==;;======**++**==;;;;;;;;;;==;;==;;==;;==**..",
"**==;;;;;;;;;;;;;;==;;======**++**==;;;;;;;;;;==;;==;;==;;==**..",
"&&**======================**&&++&&**======================**&&..",
"&&**======================**&&++&&**======================**&&..",
"@@&&**********&&**&&**&&**&&@@XX@@&&**********&&**&&**&&**&&@@++",
"@@&&**********&&**&&**&&**&&@@XX@@&&**********&&**&&**&&**&&@@++",
"++++......................++++XX++++......................++++++",
"++++......................++++XX++++......................++++++",
"++**========================++XX++**========================++++",
"++**========================++XX++**========================++++",
"&&oooo##--##############oooo@@XX&&==========================@@++",
"&&oooo##--##############oooo@@XX&&==========================@@++",
"&&oo##--oo--######--##--##oo@@XX&&**==**&&==**&&==**==**==**@@++",
"&&oo##--oo--######--##--##oo@@XX&&**==**&&==**&&==**==**==**@@++",
"&&oo####--##########--####oo@@XX&&******&&**&&@@&&**&&&&**&&@@++",
"&&oo####--##########--####oo@@XX&&******&&**&&@@&&**&&&&**&&@@++",
"&&oo##############--######oo@@XX&&******&&**&&@@&&**&&&&**&&@@++",
"&&oo##############--######oo@@XX&&******&&**&&@@&&**&&&&**&&@@++",
"@@oooo##############--##oooo@@XX@@&&****@@&&@@@@&&**&&&&**@@@@++",
"@@oooo##############--##oooo@@XX@@&&****@@&&@@@@&&**&&&&**@@@@++",
"@@&&&&XXXXXX@@@@&&&&XXXX&&@@@@++@@&&&&**@@&&@@@@&&&&&&@@&&@@@@++",
"@@&&&&XXXXXX@@@@&&&&XXXX&&@@@@++@@&&&&**@@&&@@@@&&&&&&@@&&@@@@++",
"@@@@&&XXXXXX@@++&&&&XXXX&&@@@@++@@@@&&&&@@@@++@@&&&&@@@@&&@@@@++",
"@@@@&&XXXXXX@@++&&&&XXXX&&@@@@++@@@@&&&&@@@@++@@&&&&@@@@&&@@@@++",
"@@@@&&XXXX@@++++@@@@@@++&&@@++XX++@@&&&&@@++++@@@@@@++@@&&@@@@++",
"@@@@&&XXXX@@++++@@@@@@++&&@@++XX++@@&&&&@@++++@@@@@@++@@&&@@@@++",
"@@@@@@XX++++++++@@++++++@@@@XXXX++@@@@@@++++++++@@@@++++@@@@++XX",
"@@@@@@XX++++++++@@++++++@@@@XXXX++@@@@@@++++++++@@@@++++@@@@++XX",
"++++++++++++++++++++++++++++++XX++++++++++++++++++++++++++++++XX",
"++++++++++++++++++++++++++++++XX++++++++++++++++++++++++++++++XX",
"======================**============XXXX====XXXXXX**====****====",
"======================**============XXXX====XXXXXX**====****====",
"&&&&&&&&**********&&****************XXXX**XXXX$$XXXX****&&**&&**",
"&&&&&&&&**********&&****************XXXX**XXXX$$XXXX****&&**&&**",
"@@@@@@@@@@&&&&&&@@@@@@&&&&&&&&&&&&&&@@&&@@@@&&@@&&&&&&@@@@@@@@@@",
"@@@@@@@@@@&&&&&&@@@@@@&&&&&&&&&&&&&&@@&&@@@@&&@@&&&&&&@@@@@@@@@@"
};
