/* XPM */
static char *_7f7342349284b72c0a53f30e8b2542cLikmP7vO9CQ4BvAm[] = {
/* columns rows colors chars-per-pixel */
"64 64 6 1 ",
"  c #1D1616",
". c #1C3418",
"X c #3A2825",
"o c #313C3B",
"O c #2B4D26",
"+ c #526862",
/* pixels */
"  XXXX..oooooooooooooooooo......  XXXX..oooooooooooooooooo......",
"  XXXX..oooooooooooooooooo......  XXXX..oooooooooooooooooo......",
"  XXXX..oooooooooooooooooo......  XXXX..ooOOoooooooooooooo......",
"  XXXX..oooooooooooooooooo......  XXXX..ooOOoooooooooooooo......",
"  XXXXXXoooooooooooooooooo....XX  XX....ooOOOOOOoooooooooo......",
"  XXXXXXoooooooooooooooooo....XX  XX....ooOOOOOOoooooooooo......",
"  XXXXXXoooooooooooooooooo....XX  XX....ooOOOOoooooooooooo....XX",
"  XXXXXXoooooooooooooooooo....XX  XX....ooOOOOoooooooooooo....XX",
"  XXXX..oooooooooooooooooo....XX  XX....ooOOOOoooooooooooo....XX",
"  XXXX..oooooooooooooooooo....XX  XX....ooOOOOoooooooooooo....XX",
"  XXXX..oooooooooooooooooo....XX  XX....ooOOOOoooooooooooo..XXXX",
"  XXXX..oooooooooooooooooo....XX  XX....ooOOOOoooooooooooo..XXXX",
"  XXXX..oooooooooooooooooo..XXXX  XX....ooooOOooooOOoooooo..XXXX",
"  XXXX..oooooooooooooooooo..XXXX  XX....ooooOOooooOOoooooo..XXXX",
"  XXXX..ooooooooooOOoooooo..XXXX  XXXX..ooOOooooooOOOOooooXXXXXX",
"  XXXX..ooooooooooOOoooooo..XXXX  XXXX..ooOOooooooOOOOooooXXXXXX",
"  XX....ooooooooooOOoooooo..XXXX  XXXX..ooOOooooooooOOOOooXXXXXX",
"  XX....ooooooooooOOoooooo..XXXX  XXXX..ooOOooooooooOOOOooXXXXXX",
"  XX....ooooooooooOOoooooo..XXXX  XXXX..OOOOooooooooooOOooXXXXXX",
"  XX....ooooooooooOOoooooo..XXXX  XXXX..OOOOooooooooooOOooXXXXXX",
"  XX....ooooooooOOOOoooooo..XXXX  XXXX..OOOOooooooooooooooXXXXXX",
"  XX....ooooooooOOOOoooooo..XXXX  XXXX..OOOOooooooooooooooXXXXXX",
"  XX....ooooooooOOooOOoooo..XXXX  XXXXXXOOoooooooooooooooo..XXXX",
"  XX....ooooooooOOooOOoooo..XXXX  XXXXXXOOoooooooooooooooo..XXXX",
"  XXXX..ooooooooooooOOOOoo..XXXX  XXXXXXOOoooooooooooooooo..XXXX",
"  XXXX..ooooooooooooOOOOoo..XXXX  XXXXXXOOoooooooooooooooo..XXXX",
"  XXXX..ooooooooooooOOOOoo..XXXX  XXXXXXOOoooooooooooooooo..XXXX",
"  XXXX..ooooooooooooOOOOoo..XXXX  XXXXXXOOoooooooooooooooo..XXXX",
"  XXXX..ooooooooooooooOOoo..XXXX  XXXXXXoooooooooooooooooo....XX",
"  XXXX..ooooooooooooooOOoo..XXXX  XXXXXXoooooooooooooooooo....XX",
"  XXXX..ooooooooooooooOOoo..XXXX  XX++..oooooooooooooooooo..++..",
"  XXXX..ooooooooooooooOOoo..XXXX  XX++..oooooooooooooooooo..++..",
"  XXXX..ooooooooooooooOOoo..XXXX  XX  ..ooooooOOoooooooooo..  ..",
"  XXXX..ooooooooooooooOOoo..XXXX  XX  ..ooooooOOoooooooooo..  ..",
"  XXXX..ooooOOooooooooOOoo..XXXX  XX....ooooOOOOOOoooooooo......",
"  XXXX..ooooOOooooooooOOoo..XXXX  XX....ooooOOOOOOoooooooo......",
"  XXXX..ooOOOOoooooooooooo....XX  XX....ooooOOOOooooooOOoo....XX",
"  XXXX..ooOOOOoooooooooooo....XX  XX....ooooOOOOooooooOOoo....XX",
"  XXXX..OOOOooooooooooooooXX..XX  XX....ooooOOooooooooOOoo....XX",
"  XXXX..OOOOooooooooooooooXX..XX  XX....ooooOOooooooooOOoo....XX",
"  XXXX..OOOOooooooooooooooXXXX..  XX....ooooOOooooooooOOoo....XX",
"  XXXX..OOOOooooooooooooooXXXX..  XX....ooooOOooooooooOOoo....XX",
"  XXXX..ooooooooooooooooooXXXX..  XX....ooooOOOOooooooOOoo..XXXX",
"  XXXX..ooooooooooooooooooXXXX..  XX....ooooOOOOooooooOOoo..XXXX",
"  XXXX..ooooooooooooooooooXXXX..  XX....ooooooooooooOOOOoo..XXXX",
"  XXXX..ooooooooooooooooooXXXX..  XX....ooooooooooooOOOOoo..XXXX",
"  XXXX..ooooooooooooooooooXXXX..  XXXX..ooooooooooooOOOOoo..XXXX",
"  XXXX..ooooooooooooooooooXXXX..  XXXX..ooooooooooooOOOOoo..XXXX",
"  XXXX..ooooooooooOOooooooXXXX..  XXXX..ooooooooooooOOOOoo..XXXX",
"  XXXX..ooooooooooOOooooooXXXX..  XXXX..ooooooooooooOOOOoo..XXXX",
"  XXXX..ooooooooooOOoooooo..XX..  XXXX..ooooooooooooOOOOoo....XX",
"  XXXX..ooooooooooOOoooooo..XX..  XXXX..ooooooooooooOOOOoo....XX",
"  XXXX..ooooooooooOOoooooo..XX..  XXXX..ooooooooooooOOOOoo....XX",
"  XXXX..ooooooooooOOoooooo..XX..  XXXX..ooooooooooooOOOOoo....XX",
"  XXXX..ooooooooOOOOoooooo......  XXXX..ooooooooooooooOOoo....XX",
"  XXXX..ooooooooOOOOoooooo......  XXXX..ooooooooooooooOOoo....XX",
"  XX....ooooooooooOOOOoooo......  XXXX..ooooooooooooooOOoo....XX",
"  XX....ooooooooooOOOOoooo......  XXXX..ooooooooooooooOOoo....XX",
"  XX++..ooooooooooooOOoooo..++..  XXXX..ooooooooooooooOOoo......",
"  XX++..ooooooooooooOOoooo..++..  XXXX..ooooooooooooooOOoo......",
"  XX  ..ooooooooooooOOoooo..  ..  XXXX..ooooooooooooooOOoo......",
"  XX  ..ooooooooooooOOoooo..  ..  XXXX..ooooooooooooooOOoo......",
"  XX....oooooooooooooooooo......  XXXX..oooooooooooooooooo......",
"  XX....oooooooooooooooooo......  XXXX..oooooooooooooooooo......"
};
