/* XPM */
static char *d337fd0857f4455bd5d8585514a623c9Hs0PNoSF90JudJqx[] = {
/* columns rows colors chars-per-pixel */
"64 64 6 1 ",
"  c #17331C",
". c #2B4D26",
"X c #436D3B",
"o c #658645",
"O c #83A860",
"+ c #BFC775",
/* pixels */
"OOooooooXXXX        XX..........    XX    XX++++++++++++++++++OO",
"OOooooooXXXX        XX..........    XX    XX++++++++++++++++++OO",
"OO++++OOOOOO        XX..........    XX    OO++++++++++++++++++++",
"OO++++OOOOOO        XX..........    XX    OO++++++++++++++++++++",
"OO++++++OOOOOOOOXXXXXX........XX....XXXXOO++++++++++OOOOOO++++++",
"OO++++++OOOOOOOOXXXXXX........XX....XXXXOO++++++++++OOOOOO++++++",
"OOOO++ooooooooooXXXXooooXX....XX....XXoooooo++++++++++++++OO++++",
"OOOO++ooooooooooXXXXooooXX....XX....XXoooooo++++++++++++++OO++++",
"++++++++OOOOooooXXXXooooooooXXXX    XXooooooOOOO++++++++++OOoooo",
"++++++++OOOOooooXXXXooooooooXXXX    XXooooooOOOO++++++++++OOoooo",
"++++OOOOOOOOooOOOOXXXXXXoooo....    XXXXXXXXXXXXOOOO++++++++oooo",
"++++OOOOOOOOooOOOOXXXXXXoooo....    XXXXXXXXXXXXOOOO++++++++oooo",
"OOooooooOOooooOOOOooooXXXXXX....    XXXXooooXXXXXXOOOOOO++++++OO",
"OOooooooOOooooOOOOooooXXXXXX....    XXXXooooXXXXXXOOOOOO++++++OO",
"OOooooooOOooOOOOooooooooXXXXXXXX........ooooooXXXXooOOOOOOOOOOOO",
"OOooooooOOooOOOOooooooooXXXXXXXX........ooooooXXXXooOOOOOOOOOOOO",
"ooooOOOOooooOOOOOOooooooooooXXXX........XXooooXXooooOOooooOOOOOO",
"ooooOOOOooooOOOOOOooooooooooXXXX........XXooooXXooooOOooooOOOOOO",
"ooooOOOOOOOOOOOOOOooooooooXXXX..    ..XXXXXXXXXXXXXXXXooooooOOOO",
"ooooOOOOOOOOOOOOOOooooooooXXXX..    ..XXXXXXXXXXXXXXXXooooooOOOO",
"ooooooOOOOOOOOOOOOooooooooXX....    ..XX......XXXXXXXXoooooooooo",
"ooooooOOOOOOOOOOOOooooooooXX....    ..XX......XXXXXXXXoooooooooo",
"ooooooooOOOOooooXXXXooXXXXXX....    ..........ooooXXXXXXoooooooo",
"ooooooooOOOOooooXXXXooXXXXXX....    ..........ooooXXXXXXoooooooo",
"ooooooooooooooooXXXXXXXXXXXX....    ......XXXXooooXXXXXXoooooooo",
"ooooooooooooooooXXXXXXXXXXXX....    ......XXXXooooXXXXXXoooooooo",
"ooooooooooooooooooooXXXXXX......    ..........XXXXXXXXoooooooooo",
"ooooooooooooooooooooXXXXXX......    ..........XXXXXXXXoooooooooo",
"  ........                                        ........      ",
"  ........                                        ........      ",
"  ........                                        ........      ",
"  ........                                        ........      ",
"............XXXXooOOOOOOOOOO++++++OOOOXXXXXX..........XXXXoo    ",
"............XXXXooOOOOOOOOOO++++++OOOOXXXXXX..........XXXXoo    ",
"........XXXXXXooooOOOO++++++++++++++++ooXXXX..........XXXXOO    ",
"........XXXXXXooooOOOO++++++++++++++++ooXXXX..........XXXXOO    ",
"........XXXXXXooooOO++++++++++++OOOO++OOooXXXXXX....XXXXooOO    ",
"........XXXXXXooooOO++++++++++++OOOO++OOooXXXXXX....XXXXooOO    ",
"..XXXXXXoo++++OOOO++++++++++++++OOOOOOOOOOOOOOOOOOooXXXXOOOO    ",
"..XXXXXXoo++++OOOO++++++++++++++OOOOOOOOOOOOOOOOOOooXXXXOOOO    ",
"..XXXXooOO++++OOOO++++++++++++++++OO++++OOOOOOOOOOooooooOOOO    ",
"..XXXXooOO++++OOOO++++++++++++++++OO++++OOOOOOOOOOooooooOOOO    ",
"..XXooOOOOOO++++++++++++++++++++++OO++++OOOOOOooooooOOOOOOOO    ",
"..XXooOOOOOO++++++++++++++++++++++OO++++OOOOOOooooooOOOOOOOO    ",
"XXXXooOOOO++++++++++++OO++OOOO++++++OOOOOOoooooooooooooooooo    ",
"XXXXooOOOO++++++++++++OO++OOOO++++++OOOOOOoooooooooooooooooo    ",
"XXXXOOOOOO++++++++OOOOOO++++OOOO++++OOOOOOooooooooooooXXXXoo    ",
"XXXXOOOOOO++++++++OOOOOO++++OOOO++++OOOOOOooooooooooooXXXXoo    ",
"XXooOOOOOO++++++++++OOOO++++OOOO++++OO++++OOOOooooXXXXXXXXXX    ",
"XXooOOOOOO++++++++++OOOO++++OOOO++++OO++++OOOOooooXXXXXXXXXX    ",
"ooXXXXXXOOXXXXooooooooOOOOOOOOOOOOOOOO++++OOooooXXXXXXXXXXXX    ",
"ooXXXXXXOOXXXXooooooooOOOOOOOOOOOOOOOO++++OOooooXXXXXXXXXXXX    ",
"ooXXXXXXooXXXXooXXXXXXooOOOOOOOOOOOOOOOOOOOOXXXXXXXXXXXX..XX    ",
"ooXXXXXXooXXXXooXXXXXXooOOOOOOOOOOOOOOOOOOOOXXXXXXXXXXXX..XX    ",
"ooooXXXXooooXXXXXXXXXXXXXXooooooooOOOOooooooXXXXXXXXXX......    ",
"ooooXXXXooooXXXXXXXXXXXXXXooooooooOOOOooooooXXXXXXXXXX......    ",
"XXXXXXXXXXXX....XXXXXXXXXXooooooooooooooooooXXXXXX..........    ",
"XXXXXXXXXXXX....XXXXXXXXXXooooooooooooooooooXXXXXX..........    ",
"XXXXXXXXXX......XXXXXXXXXXXXooooooooooooXXXXXXXXXX..........    ",
"XXXXXXXXXX......XXXXXXXXXXXXooooooooooooXXXXXXXXXX..........    ",
"      ....        ....                                          ",
"      ....        ....                                          ",
"      ....        ....                                          ",
"      ....        ....                                          "
};
