/* XPM */
static char *result[] = {
/* columns rows colors chars-per-pixel */
"64 64 4 1 ",
"  c #18101C",
". c #222537",
"X c #2F4B6A",
"o c #637F9F",
/* pixels */
"XXXXXXXX....................                      XXXXXXXXXXXXXX",
"XXXXXXXX....................                      XXXXXXXXXXXXXX",
"XXXXXXXX..................    ooooooooooooooXXXX    XXXXXXXXXXXX",
"XXXXXXXX..................    ooooooooooooooXXXX    XXXXXXXXXXXX",
"XXXXXXXX................    ooXXXXXXXXXXXX......XX    XXXXXXXXXX",
"XXXXXXXX................    ooXXXXXXXXXXXX......XX    XXXXXXXXXX",
"XXXXXXXX..............    ooXXXXXXXXXXXXXX........XX    XXXXXXXX",
"XXXXXXXX..............    ooXXXXXXXXXXXXXX........XX    XXXXXXXX",
"XXXXXXXX............    ooXXXXXXXXXXXXXXXX..........XX    XXXXXX",
"XXXXXXXX............    ooXXXXXXXXXXXXXXXX..........XX    XXXXXX",
"XXXXXXXX..........    ooXXXXXXXXXXXXXXXXXX............XX    XXXX",
"XXXXXXXX..........    ooXXXXXXXXXXXXXXXXXX............XX    XXXX",
"XXXXXXXXXXXXXXXX    ooXXXXXXXXXXXXXXXXXXXX..............XX    XX",
"XXXXXXXXXXXXXXXX    ooXXXXXXXXXXXXXXXXXXXX..............XX    XX",
"                  ooXXXXXXXXXXXXXXXXXXXXXX................XX    ",
"                  ooXXXXXXXXXXXXXXXXXXXXXX................XX    ",
"                  XXXXXXXXXXXXXXXXXXXXXXXX..................    ",
"                  XXXXXXXXXXXXXXXXXXXXXXXX..................    ",
"ooooooooooooXXXX    XXXXXXXXXXXXXXXXXXXXXX................    oo",
"ooooooooooooXXXX    XXXXXXXXXXXXXXXXXXXXXX................    oo",
"XXXXXXXX........XX    XXXXXXXXXXXXXXXXXXXX..............    ooXX",
"XXXXXXXX........XX    XXXXXXXXXXXXXXXXXXXX..............    ooXX",
"XXXXXXXX..........XX    XXXXXXXXXXXXXXXXXX............    ooXXXX",
"XXXXXXXX..........XX    XXXXXXXXXXXXXXXXXX............    ooXXXX",
"XXXXXXXX............XX    XXXXXXXXXXXXXXXX..........    ooXXXXXX",
"XXXXXXXX............XX    XXXXXXXXXXXXXXXX..........    ooXXXXXX",
"XXXXXXXX..............XX    XXXXXXXXXXXXXX........    ooXXXXXXXX",
"XXXXXXXX..............XX    XXXXXXXXXXXXXX........    ooXXXXXXXX",
"XXXXXXXX................XX    XXXXXXXXXXXXXXXXXX    ooXXXXXXXXXX",
"XXXXXXXX................XX    XXXXXXXXXXXXXXXXXX    ooXXXXXXXXXX",
"XXXXXXXX..................XX                      ooXXXXXXXXXXXX",
"XXXXXXXX..................XX                      ooXXXXXXXXXXXX",
"XXXXXXXX....................                      XXXXXXXXXXXXXX",
"XXXXXXXX....................                      XXXXXXXXXXXXXX",
"XXXXXXXX..................    ooooooooooooooXXXX    XXXXXXXXXXXX",
"XXXXXXXX..................    ooooooooooooooXXXX    XXXXXXXXXXXX",
"XXXXXXXX................    ooXXXXXXXXXXXX......XX    XXXXXXXXXX",
"XXXXXXXX................    ooXXXXXXXXXXXX......XX    XXXXXXXXXX",
"XXXXXXXX..............    ooXXXXXXXXXXXXXX........XX    XXXXXXXX",
"XXXXXXXX..............    ooXXXXXXXXXXXXXX........XX    XXXXXXXX",
"XXXXXXXX............    ooXXXXXXXXXXXXXXXX..........XX    XXXXXX",
"XXXXXXXX............    ooXXXXXXXXXXXXXXXX..........XX    XXXXXX",
"XXXXXXXX..........    ooXXXXXXXXXXXXXXXXXX............XX    XXXX",
"XXXXXXXX..........    ooXXXXXXXXXXXXXXXXXX............XX    XXXX",
"XXXXXXXXXXXXXXXX    ooXXXXXXXXXXXXXXXXXXXX..............XX    XX",
"XXXXXXXXXXXXXXXX    ooXXXXXXXXXXXXXXXXXXXX..............XX    XX",
"                  ooXXXXXXXXXXXXXXXXXXXXXX................XX    ",
"                  ooXXXXXXXXXXXXXXXXXXXXXX................XX    ",
"                  XXXXXXXXXXXXXXXXXXXXXXXX..................    ",
"                  XXXXXXXXXXXXXXXXXXXXXXXX..................    ",
"ooooooooooooXXXX    XXXXXXXXXXXXXXXXXXXXXX................    oo",
"ooooooooooooXXXX    XXXXXXXXXXXXXXXXXXXXXX................    oo",
"XXXXXXXX........XX    XXXXXXXXXXXXXXXXXXXX..............    ooXX",
"XXXXXXXX........XX    XXXXXXXXXXXXXXXXXXXX..............    ooXX",
"XXXXXXXX..........XX    XXXXXXXXXXXXXXXXXX............    ooXXXX",
"XXXXXXXX..........XX    XXXXXXXXXXXXXXXXXX............    ooXXXX",
"XXXXXXXX............XX    XXXXXXXXXXXXXXXX..........    ooXXXXXX",
"XXXXXXXX............XX    XXXXXXXXXXXXXXXX..........    ooXXXXXX",
"XXXXXXXX..............XX    XXXXXXXXXXXXXX........    ooXXXXXXXX",
"XXXXXXXX..............XX    XXXXXXXXXXXXXX........    ooXXXXXXXX",
"XXXXXXXX................XX    XXXXXXXXXXXXXXXXXX    ooXXXXXXXXXX",
"XXXXXXXX................XX    XXXXXXXXXXXXXXXXXX    ooXXXXXXXXXX",
"XXXXXXXX..................XX                      ooXXXXXXXXXXXX",
"XXXXXXXX..................XX                      ooXXXXXXXXXXXX"
};
