/* XPM */
static char *result[] = {
/* columns rows colors chars-per-pixel */
"64 64 6 1 ",
"  c #1D1616",
". c #3A2825",
"X c #2C293D",
"o c #3C3531",
"O c #313C3B",
"+ c #526862",
/* pixels */
"  XXXX..OOOOOOOOOOOOOOOOOO......  XXXX..OOOOOOOOOOOOOOOOOO......",
"  XXXX..OOOOOOOOOOOOOOOOOO......  XXXX..OOOOOOOOOOOOOOOOOO......",
"  XXXX..OOOOOOOOOOOOOOOOOO......  XXXX..OOooOOOOOOOOOOOOOO......",
"  XXXX..OOOOOOOOOOOOOOOOOO......  XXXX..OOooOOOOOOOOOOOOOO......",
"  XXXXXXOOOOOOOOOOOOOOOOOO....XX  XX....OOooooooOOOOOOOOOO......",
"  XXXXXXOOOOOOOOOOOOOOOOOO....XX  XX....OOooooooOOOOOOOOOO......",
"  XXXXXXOOOOOOOOOOOOOOOOOO....XX  XX....OOooooOOOOOOOOOOOO....XX",
"  XXXXXXOOOOOOOOOOOOOOOOOO....XX  XX....OOooooOOOOOOOOOOOO....XX",
"  XXXX..OOOOOOOOOOOOOOOOOO....XX  XX....OOooooOOOOOOOOOOOO....XX",
"  XXXX..OOOOOOOOOOOOOOOOOO....XX  XX....OOooooOOOOOOOOOOOO....XX",
"  XXXX..OOOOOOOOOOOOOOOOOO....XX  XX....OOooooOOOOOOOOOOOO..XXXX",
"  XXXX..OOOOOOOOOOOOOOOOOO....XX  XX....OOooooOOOOOOOOOOOO..XXXX",
"  XXXX..OOOOOOOOOOOOOOOOOO..XXXX  XX....OOOOooOOOOooOOOOOO..XXXX",
"  XXXX..OOOOOOOOOOOOOOOOOO..XXXX  XX....OOOOooOOOOooOOOOOO..XXXX",
"  XXXX..OOOOOOOOOOooOOOOOO..XXXX  XXXX..OOooOOOOOOooooOOOOXXXXXX",
"  XXXX..OOOOOOOOOOooOOOOOO..XXXX  XXXX..OOooOOOOOOooooOOOOXXXXXX",
"  XX....OOOOOOOOOOooOOOOOO..XXXX  XXXX..OOooOOOOOOOOooooOOXXXXXX",
"  XX....OOOOOOOOOOooOOOOOO..XXXX  XXXX..OOooOOOOOOOOooooOOXXXXXX",
"  XX....OOOOOOOOOOooOOOOOO..XXXX  XXXX..ooooOOOOOOOOOOooOOXXXXXX",
"  XX....OOOOOOOOOOooOOOOOO..XXXX  XXXX..ooooOOOOOOOOOOooOOXXXXXX",
"  XX....OOOOOOOOooooOOOOOO..XXXX  XXXX..ooooOOOOOOOOOOOOOOXXXXXX",
"  XX....OOOOOOOOooooOOOOOO..XXXX  XXXX..ooooOOOOOOOOOOOOOOXXXXXX",
"  XX....OOOOOOOOooOOooOOOO..XXXX  XXXXXXooOOOOOOOOOOOOOOOO..XXXX",
"  XX....OOOOOOOOooOOooOOOO..XXXX  XXXXXXooOOOOOOOOOOOOOOOO..XXXX",
"  XXXX..OOOOOOOOOOOOooooOO..XXXX  XXXXXXooOOOOOOOOOOOOOOOO..XXXX",
"  XXXX..OOOOOOOOOOOOooooOO..XXXX  XXXXXXooOOOOOOOOOOOOOOOO..XXXX",
"  XXXX..OOOOOOOOOOOOooooOO..XXXX  XXXXXXooOOOOOOOOOOOOOOOO..XXXX",
"  XXXX..OOOOOOOOOOOOooooOO..XXXX  XXXXXXooOOOOOOOOOOOOOOOO..XXXX",
"  XXXX..OOOOOOOOOOOOOOooOO..XXXX  XXXXXXOOOOOOOOOOOOOOOOOO....XX",
"  XXXX..OOOOOOOOOOOOOOooOO..XXXX  XXXXXXOOOOOOOOOOOOOOOOOO....XX",
"  XXXX..OOOOOOOOOOOOOOooOO..XXXX  XX++..OOOOOOOOOOOOOOOOOO..++..",
"  XXXX..OOOOOOOOOOOOOOooOO..XXXX  XX++..OOOOOOOOOOOOOOOOOO..++..",
"  XXXX..OOOOOOOOOOOOOOooOO..XXXX  XX  ..OOOOOOooOOOOOOOOOO..  ..",
"  XXXX..OOOOOOOOOOOOOOooOO..XXXX  XX  ..OOOOOOooOOOOOOOOOO..  ..",
"  XXXX..OOOOooOOOOOOOOooOO..XXXX  XX....OOOOooooooOOOOOOOO......",
"  XXXX..OOOOooOOOOOOOOooOO..XXXX  XX....OOOOooooooOOOOOOOO......",
"  XXXX..OOooooOOOOOOOOOOOO....XX  XX....OOOOooooOOOOOOooOO....XX",
"  XXXX..OOooooOOOOOOOOOOOO....XX  XX....OOOOooooOOOOOOooOO....XX",
"  XXXX..ooooOOOOOOOOOOOOOOXX..XX  XX....OOOOooOOOOOOOOooOO....XX",
"  XXXX..ooooOOOOOOOOOOOOOOXX..XX  XX....OOOOooOOOOOOOOooOO....XX",
"  XXXX..ooooOOOOOOOOOOOOOOXXXX..  XX....OOOOooOOOOOOOOooOO....XX",
"  XXXX..ooooOOOOOOOOOOOOOOXXXX..  XX....OOOOooOOOOOOOOooOO....XX",
"  XXXX..OOOOOOOOOOOOOOOOOOXXXX..  XX....OOOOooooOOOOOOooOO..XXXX",
"  XXXX..OOOOOOOOOOOOOOOOOOXXXX..  XX....OOOOooooOOOOOOooOO..XXXX",
"  XXXX..OOOOOOOOOOOOOOOOOOXXXX..  XX....OOOOOOOOOOOOooooOO..XXXX",
"  XXXX..OOOOOOOOOOOOOOOOOOXXXX..  XX....OOOOOOOOOOOOooooOO..XXXX",
"  XXXX..OOOOOOOOOOOOOOOOOOXXXX..  XXXX..OOOOOOOOOOOOooooOO..XXXX",
"  XXXX..OOOOOOOOOOOOOOOOOOXXXX..  XXXX..OOOOOOOOOOOOooooOO..XXXX",
"  XXXX..OOOOOOOOOOooOOOOOOXXXX..  XXXX..OOOOOOOOOOOOooooOO..XXXX",
"  XXXX..OOOOOOOOOOooOOOOOOXXXX..  XXXX..OOOOOOOOOOOOooooOO..XXXX",
"  XXXX..OOOOOOOOOOooOOOOOO..XX..  XXXX..OOOOOOOOOOOOooooOO....XX",
"  XXXX..OOOOOOOOOOooOOOOOO..XX..  XXXX..OOOOOOOOOOOOooooOO....XX",
"  XXXX..OOOOOOOOOOooOOOOOO..XX..  XXXX..OOOOOOOOOOOOooooOO....XX",
"  XXXX..OOOOOOOOOOooOOOOOO..XX..  XXXX..OOOOOOOOOOOOooooOO....XX",
"  XXXX..OOOOOOOOooooOOOOOO......  XXXX..OOOOOOOOOOOOOOooOO....XX",
"  XXXX..OOOOOOOOooooOOOOOO......  XXXX..OOOOOOOOOOOOOOooOO....XX",
"  XX....OOOOOOOOOOooooOOOO......  XXXX..OOOOOOOOOOOOOOooOO....XX",
"  XX....OOOOOOOOOOooooOOOO......  XXXX..OOOOOOOOOOOOOOooOO....XX",
"  XX++..OOOOOOOOOOOOooOOOO..++..  XXXX..OOOOOOOOOOOOOOooOO......",
"  XX++..OOOOOOOOOOOOooOOOO..++..  XXXX..OOOOOOOOOOOOOOooOO......",
"  XX  ..OOOOOOOOOOOOooOOOO..  ..  XXXX..OOOOOOOOOOOOOOooOO......",
"  XX  ..OOOOOOOOOOOOooOOOO..  ..  XXXX..OOOOOOOOOOOOOOooOO......",
"  XX....OOOOOOOOOOOOOOOOOO......  XXXX..OOOOOOOOOOOOOOOOOO......",
"  XX....OOOOOOOOOOOOOOOOOO......  XXXX..OOOOOOOOOOOOOOOOOO......"
};
