/* XPM */
static char *result[] = {
/* columns rows colors chars-per-pixel */
"64 64 9 1 ",
"  c #17331C",
". c #1C3418",
"X c #172520",
"o c #2B4D26",
"O c #436D3B",
"+ c #658645",
"@ c #83A860",
"# c #BFC775",
"$ c #E3EBAB",
/* pixels */
"OO++##$$$$$$$$$$$$$$$$$$##++OOooOO++##$$$$$$$$$$$$$$$$$$##++OOoo",
"OO++##$$$$$$$$$$$$$$$$$$##++OOooOO++##$$$$$$$$$$$$$$$$$$##++OOoo",
"@@##$$$$$$$$$$##$$##$$######@@oo@@##$$$$$$$$$$$$$$$$##$$$$##@@oo",
"@@##$$$$$$$$$$##$$##$$######@@oo@@##$$$$$$$$$$$$$$$$##$$$$##@@oo",
"++@@######################@@++oo++@@######################@@++oo",
"++@@######################@@++oo++@@######################@@++oo",
"OO++@@@@@@@@@@++@@++@@++@@++OOooOO++@@@@@@@@@@++@@++@@++@@++OOoo",
"OO++@@@@@@@@@@++@@++@@++@@++OOooOO++@@@@@@@@@@++@@++@@++@@++OOoo",
"oooo......................oooooooooo......................oooooo",
"oooo......................oooooooooo......................oooooo",
"oo@@########################oooooo@@########################oooo",
"oo@@########################oooooo@@########################oooo",
"++##########################OOoo++##########################OOoo",
"++##########################OOoo++##########################OOoo",
"++@@##@@++##@@++##@@##@@##@@OOoo++@@##@@++##@@++##@@##@@##@@OOoo",
"++@@##@@++##@@++##@@##@@##@@OOoo++@@##@@++##@@++##@@##@@##@@OOoo",
"++@@@@@@++@@++OO++@@++++@@++OOoo++@@@@@@++@@++OO++@@++++@@++OOoo",
"++@@@@@@++@@++OO++@@++++@@++OOoo++@@@@@@++@@++OO++@@++++@@++OOoo",
"++@@@@@@++@@++OO++@@++OO++++OOoo++@@++OO++@@++OO++@@OO++@@++OOoo",
"++@@@@@@++@@++OO++@@++OO++++OOoo++@@++OO++@@++OO++@@OO++@@++OOoo",
"OO++@@@@OO++OOOO++@@OOOOOO    ..OO++OOOOOO++OOOO++OOOOOO++OOOO..",
"OO++@@@@OO++OOOO++@@OOOOOO    ..OO++OOOOOO++OOOO++OOOOOO++OOOO..",
"................................................................",
"................................................................",
"......oooooooooooooooooooo............oooooooooooooooooooo......",
"......oooooooooooooooooooo............oooooooooooooooooooo......",
"OO++##$$$$$$$$$$$$$$$$$$$$++OO..OO++##$$$$$$$$$$$$$$$$$$##++OO..",
"OO++##$$$$$$$$$$$$$$$$$$$$++OO..OO++##$$$$$$$$$$$$$$$$$$##++OO..",
"@@##$$$$$$$$$$$$$$##$$######@@oo@@##$$$$$$$$$$##$$##$$##$$##@@..",
"@@##$$$$$$$$$$$$$$##$$######@@oo@@##$$$$$$$$$$##$$##$$##$$##@@..",
"++@@######################@@++oo++@@######################@@++..",
"++@@######################@@++oo++@@######################@@++..",
"OO++@@@@@@@@@@++@@++@@++@@++OOXXOO++@@@@@@@@@@++@@++@@++@@++OOoo",
"OO++@@@@@@@@@@++@@++@@++@@++OOXXOO++@@@@@@@@@@++@@++@@++@@++OOoo",
"oooo......................ooooXXoooo......................oooooo",
"oooo......................ooooXXoooo......................oooooo",
"oo@@########################ooXXoo@@########################oooo",
"oo@@########################ooXXoo@@########################oooo",
"++##########################OOXX++##########################OOoo",
"++##########################OOXX++##########################OOoo",
"++@@##@@++##@@++##@@##@@##@@OOXX++@@##@@++##@@++##@@##@@##@@OOoo",
"++@@##@@++##@@++##@@##@@##@@OOXX++@@##@@++##@@++##@@##@@##@@OOoo",
"++@@@@@@++@@++OO++@@++++@@++OOXX++@@@@@@++@@++OO++@@++++@@++OOoo",
"++@@@@@@++@@++OO++@@++++@@++OOXX++@@@@@@++@@++OO++@@++++@@++OOoo",
"++@@@@@@++@@++OO++@@++++@@++OOXX++@@@@@@++@@++OO++@@++++@@++OOoo",
"++@@@@@@++@@++OO++@@++++@@++OOXX++@@@@@@++@@++OO++@@++++@@++OOoo",
"OO++@@@@OO++OOOO++@@++++@@OOOOXXOO++@@@@OO++OOOO++@@++++@@OOOOoo",
"OO++@@@@OO++OOOO++@@++++@@OOOOXXOO++@@@@OO++OOOO++@@++++@@OOOOoo",
"OO++++@@OO++OOOO++++++OO++OOOOooOO++++@@OO++OOOO++++++OO++OOOOoo",
"OO++++@@OO++OOOO++++++OO++OOOOooOO++++@@OO++OOOO++++++OO++OOOOoo",
"OOOO++++OOOOOOoo++++OOOO++OOOOooOOOO++++OOOOooOO++++OOOO++OOOOoo",
"OOOO++++OOOOOOoo++++OOOO++OOOOooOOOO++++OOOOooOO++++OOOO++OOOOoo",
"OOOO++++OOOOooooOOOOOOoo++OOooXXooOO++++OOooooOOOOOOooOO++OOOOoo",
"OOOO++++OOOOooooOOOOOOoo++OOooXXooOO++++OOooooOOOOOOooOO++OOOOoo",
"OOOOOOOOooooooooOOooooooOOOOXXXXooOOOOOOooooooooOOOOooooOOOOooXX",
"OOOOOOOOooooooooOOooooooOOOOXXXXooOOOOOOooooooooOOOOooooOOOOooXX",
"ooooooooooooooooooooooooooooooXXooooooooooooooooooooooooooooooXX",
"ooooooooooooooooooooooooooooooXXooooooooooooooooooooooooooooooXX",
"######################@@##############@@##########@@####@@@@####",
"######################@@##############@@##########@@####@@@@####",
"++++++++@@@@@@@@@@++@@@@@@@@@@@@@@@@@@@@@@@@@@@@@@@@@@@@++@@++@@",
"++++++++@@@@@@@@@@++@@@@@@@@@@@@@@@@@@@@@@@@@@@@@@@@@@@@++@@++@@",
"OOOOOOOOOO++++++OOOOOO++++++++++++++OO++OOOO++OO++++++OOOOOOOOOO",
"OOOOOOOOOO++++++OOOOOO++++++++++++++OO++OOOO++OO++++++OOOOOOOOOO"
};
